<mxfile host="app.diagrams.net" modified="2021-09-22T07:56:43.842Z" agent="5.0 (Windows NT 10.0; Win64; x64) AppleWebKit/537.36 (KHTML, like Gecko) Chrome/92.0.4515.159 Safari/537.36 Edg/92.0.902.84" etag="hxhIT5uDmrGxZErEc-ud" version="15.2.9" type="github">
  <diagram id="2depj76GkkncPSz6ImBQ" name="第 1 页">
    <mxGraphModel dx="1102" dy="609" grid="1" gridSize="10" guides="1" tooltips="1" connect="1" arrows="1" fold="1" page="1" pageScale="1" pageWidth="827" pageHeight="1169" math="0" shadow="0">
      <root>
        <mxCell id="0" />
        <mxCell id="1" parent="0" />
        <mxCell id="HBiQXsytSVVe7WPZNyq9-1" value="Actor" style="shape=umlActor;verticalLabelPosition=bottom;verticalAlign=top;html=1;outlineConnect=0;" vertex="1" parent="1">
          <mxGeometry x="170" y="270" width="30" height="60" as="geometry" />
        </mxCell>
        <mxCell id="HBiQXsytSVVe7WPZNyq9-2" value="roll" style="ellipse;whiteSpace=wrap;html=1;" vertex="1" parent="1">
          <mxGeometry x="330" y="180" width="120" height="80" as="geometry" />
        </mxCell>
        <mxCell id="HBiQXsytSVVe7WPZNyq9-3" value="getFaceValue" style="ellipse;whiteSpace=wrap;html=1;" vertex="1" parent="1">
          <mxGeometry x="550" y="180" width="120" height="80" as="geometry" />
        </mxCell>
        <mxCell id="HBiQXsytSVVe7WPZNyq9-5" value="" style="endArrow=none;html=1;entryX=0;entryY=0.5;entryDx=0;entryDy=0;exitX=1;exitY=0.3333333333333333;exitDx=0;exitDy=0;exitPerimeter=0;" edge="1" parent="1" source="HBiQXsytSVVe7WPZNyq9-1" target="HBiQXsytSVVe7WPZNyq9-2">
          <mxGeometry width="50" height="50" relative="1" as="geometry">
            <mxPoint x="390" y="340" as="sourcePoint" />
            <mxPoint x="440" y="290" as="targetPoint" />
          </mxGeometry>
        </mxCell>
        <mxCell id="HBiQXsytSVVe7WPZNyq9-6" value="" style="endArrow=classic;html=1;entryX=0;entryY=0.5;entryDx=0;entryDy=0;exitX=1;exitY=0.5;exitDx=0;exitDy=0;" edge="1" parent="1" source="HBiQXsytSVVe7WPZNyq9-2" target="HBiQXsytSVVe7WPZNyq9-3">
          <mxGeometry width="50" height="50" relative="1" as="geometry">
            <mxPoint x="390" y="340" as="sourcePoint" />
            <mxPoint x="440" y="290" as="targetPoint" />
          </mxGeometry>
        </mxCell>
        <mxCell id="HBiQXsytSVVe7WPZNyq9-7" value="game result" style="ellipse;whiteSpace=wrap;html=1;" vertex="1" parent="1">
          <mxGeometry x="700" y="270" width="120" height="80" as="geometry" />
        </mxCell>
        <mxCell id="HBiQXsytSVVe7WPZNyq9-8" value="" style="endArrow=classic;html=1;entryX=0;entryY=0.5;entryDx=0;entryDy=0;exitX=0.5;exitY=1;exitDx=0;exitDy=0;" edge="1" parent="1" source="HBiQXsytSVVe7WPZNyq9-3" target="HBiQXsytSVVe7WPZNyq9-7">
          <mxGeometry width="50" height="50" relative="1" as="geometry">
            <mxPoint x="390" y="340" as="sourcePoint" />
            <mxPoint x="440" y="290" as="targetPoint" />
          </mxGeometry>
        </mxCell>
        <mxCell id="HBiQXsytSVVe7WPZNyq9-10" value="&lt;div&gt;&lt;span style=&quot;font-size: 13px&quot;&gt;&lt;font color=&quot;#333333&quot; face=&quot;Helvetica Neue, Helvetica, Arial, Hiragino Sans GB, Hiragino Sans GB W3, Microsoft YaHei UI, Microsoft YaHei, sans-serif&quot;&gt;dice&lt;/font&gt;&lt;/span&gt;&lt;/div&gt;" style="shape=umlLifeline;perimeter=lifelinePerimeter;whiteSpace=wrap;html=1;container=1;collapsible=0;recursiveResize=0;outlineConnect=0;" vertex="1" parent="1">
          <mxGeometry x="290" y="480" width="100" height="300" as="geometry" />
        </mxCell>
        <mxCell id="HBiQXsytSVVe7WPZNyq9-16" value="" style="html=1;points=[];perimeter=orthogonalPerimeter;" vertex="1" parent="HBiQXsytSVVe7WPZNyq9-10">
          <mxGeometry x="45" y="120" width="10" height="80" as="geometry" />
        </mxCell>
        <mxCell id="HBiQXsytSVVe7WPZNyq9-26" value="" style="html=1;points=[];perimeter=orthogonalPerimeter;" vertex="1" parent="HBiQXsytSVVe7WPZNyq9-10">
          <mxGeometry x="45" y="220" width="10" height="80" as="geometry" />
        </mxCell>
        <mxCell id="HBiQXsytSVVe7WPZNyq9-27" value="result" style="html=1;verticalAlign=bottom;startArrow=oval;endArrow=block;startSize=8;" edge="1" target="HBiQXsytSVVe7WPZNyq9-26" parent="HBiQXsytSVVe7WPZNyq9-10">
          <mxGeometry relative="1" as="geometry">
            <mxPoint x="290" y="230" as="sourcePoint" />
          </mxGeometry>
        </mxCell>
        <mxCell id="HBiQXsytSVVe7WPZNyq9-12" value="player" style="shape=umlLifeline;participant=umlActor;perimeter=lifelinePerimeter;whiteSpace=wrap;html=1;container=1;collapsible=0;recursiveResize=0;verticalAlign=top;spacingTop=36;outlineConnect=0;" vertex="1" parent="1">
          <mxGeometry x="120" y="480" width="20" height="310" as="geometry" />
        </mxCell>
        <mxCell id="HBiQXsytSVVe7WPZNyq9-28" value="" style="html=1;points=[];perimeter=orthogonalPerimeter;" vertex="1" parent="HBiQXsytSVVe7WPZNyq9-12">
          <mxGeometry x="5" y="230" width="10" height="80" as="geometry" />
        </mxCell>
        <mxCell id="HBiQXsytSVVe7WPZNyq9-13" value="face value" style="shape=umlLifeline;perimeter=lifelinePerimeter;whiteSpace=wrap;html=1;container=1;collapsible=0;recursiveResize=0;outlineConnect=0;" vertex="1" parent="1">
          <mxGeometry x="530" y="480" width="100" height="300" as="geometry" />
        </mxCell>
        <mxCell id="HBiQXsytSVVe7WPZNyq9-22" value="" style="html=1;points=[];perimeter=orthogonalPerimeter;" vertex="1" parent="HBiQXsytSVVe7WPZNyq9-13">
          <mxGeometry x="45" y="140" width="10" height="110" as="geometry" />
        </mxCell>
        <mxCell id="HBiQXsytSVVe7WPZNyq9-23" value="get" style="html=1;verticalAlign=bottom;startArrow=oval;endArrow=block;startSize=8;" edge="1" target="HBiQXsytSVVe7WPZNyq9-22" parent="HBiQXsytSVVe7WPZNyq9-13">
          <mxGeometry relative="1" as="geometry">
            <mxPoint x="-190" y="140" as="sourcePoint" />
          </mxGeometry>
        </mxCell>
        <mxCell id="HBiQXsytSVVe7WPZNyq9-17" value="roll" style="html=1;verticalAlign=bottom;startArrow=oval;endArrow=block;startSize=8;" edge="1" target="HBiQXsytSVVe7WPZNyq9-16" parent="1" source="HBiQXsytSVVe7WPZNyq9-12">
          <mxGeometry relative="1" as="geometry">
            <mxPoint x="275" y="600" as="sourcePoint" />
            <Array as="points">
              <mxPoint x="270" y="610" />
            </Array>
          </mxGeometry>
        </mxCell>
        <mxCell id="HBiQXsytSVVe7WPZNyq9-29" value="result" style="html=1;verticalAlign=bottom;startArrow=oval;endArrow=block;startSize=8;" edge="1" target="HBiQXsytSVVe7WPZNyq9-28" parent="1" source="HBiQXsytSVVe7WPZNyq9-10">
          <mxGeometry relative="1" as="geometry">
            <mxPoint x="65" y="710" as="sourcePoint" />
            <Array as="points">
              <mxPoint x="260" y="730" />
            </Array>
          </mxGeometry>
        </mxCell>
        <mxCell id="HBiQXsytSVVe7WPZNyq9-46" style="edgeStyle=none;rounded=0;orthogonalLoop=1;jettySize=auto;html=1;exitX=1;exitY=0.5;exitDx=0;exitDy=0;entryX=0.01;entryY=0.822;entryDx=0;entryDy=0;entryPerimeter=0;" edge="1" parent="1" source="HBiQXsytSVVe7WPZNyq9-34" target="HBiQXsytSVVe7WPZNyq9-36">
          <mxGeometry relative="1" as="geometry" />
        </mxCell>
        <mxCell id="HBiQXsytSVVe7WPZNyq9-34" value="&lt;p style=&quot;margin: 0px ; margin-top: 4px ; text-align: center&quot;&gt;&lt;b&gt;playgame&lt;/b&gt;&lt;/p&gt;&lt;hr size=&quot;1&quot;&gt;&lt;div style=&quot;height: 2px&quot;&gt;&lt;span style=&quot;white-space: pre&quot;&gt;	&lt;/span&gt;&lt;span style=&quot;white-space: pre&quot;&gt;	&lt;/span&gt;main()&lt;/div&gt;" style="verticalAlign=top;align=left;overflow=fill;fontSize=12;fontFamily=Helvetica;html=1;" vertex="1" parent="1">
          <mxGeometry x="90" y="910" width="140" height="60" as="geometry" />
        </mxCell>
        <mxCell id="HBiQXsytSVVe7WPZNyq9-35" value="die" style="swimlane;fontStyle=1;align=center;verticalAlign=top;childLayout=stackLayout;horizontal=1;startSize=26;horizontalStack=0;resizeParent=1;resizeParentMax=0;resizeLast=0;collapsible=1;marginBottom=0;" vertex="1" parent="1">
          <mxGeometry x="334" y="895" width="160" height="110" as="geometry" />
        </mxCell>
        <mxCell id="HBiQXsytSVVe7WPZNyq9-36" value="facevalue:int" style="text;strokeColor=none;fillColor=none;align=left;verticalAlign=top;spacingLeft=4;spacingRight=4;overflow=hidden;rotatable=0;points=[[0,0.5],[1,0.5]];portConstraint=eastwest;" vertex="1" parent="HBiQXsytSVVe7WPZNyq9-35">
          <mxGeometry y="26" width="160" height="26" as="geometry" />
        </mxCell>
        <mxCell id="HBiQXsytSVVe7WPZNyq9-45" value="" style="endArrow=open;endFill=1;endSize=12;html=1;entryX=0.015;entryY=1.045;entryDx=0;entryDy=0;entryPerimeter=0;" edge="1" parent="HBiQXsytSVVe7WPZNyq9-35" target="HBiQXsytSVVe7WPZNyq9-40">
          <mxGeometry width="160" relative="1" as="geometry">
            <mxPoint x="156" y="55" as="sourcePoint" />
            <mxPoint x="246" y="60" as="targetPoint" />
          </mxGeometry>
        </mxCell>
        <mxCell id="HBiQXsytSVVe7WPZNyq9-37" value="" style="line;strokeWidth=1;fillColor=none;align=left;verticalAlign=middle;spacingTop=-1;spacingLeft=3;spacingRight=3;rotatable=0;labelPosition=right;points=[];portConstraint=eastwest;" vertex="1" parent="HBiQXsytSVVe7WPZNyq9-35">
          <mxGeometry y="52" width="160" height="8" as="geometry" />
        </mxCell>
        <mxCell id="HBiQXsytSVVe7WPZNyq9-38" value="roll():void&#xa;getFaceValue():int" style="text;strokeColor=none;fillColor=none;align=left;verticalAlign=top;spacingLeft=4;spacingRight=4;overflow=hidden;rotatable=0;points=[[0,0.5],[1,0.5]];portConstraint=eastwest;" vertex="1" parent="HBiQXsytSVVe7WPZNyq9-35">
          <mxGeometry y="60" width="160" height="50" as="geometry" />
        </mxCell>
        <mxCell id="HBiQXsytSVVe7WPZNyq9-39" value="dicegame" style="swimlane;fontStyle=1;align=center;verticalAlign=top;childLayout=stackLayout;horizontal=1;startSize=26;horizontalStack=0;resizeParent=1;resizeParentMax=0;resizeLast=0;collapsible=1;marginBottom=0;" vertex="1" parent="1">
          <mxGeometry x="585" y="895" width="160" height="110" as="geometry" />
        </mxCell>
        <mxCell id="HBiQXsytSVVe7WPZNyq9-40" value="die1:die&#xa;die2:die" style="text;strokeColor=none;fillColor=none;align=left;verticalAlign=top;spacingLeft=4;spacingRight=4;overflow=hidden;rotatable=0;points=[[0,0.5],[1,0.5]];portConstraint=eastwest;" vertex="1" parent="HBiQXsytSVVe7WPZNyq9-39">
          <mxGeometry y="26" width="160" height="34" as="geometry" />
        </mxCell>
        <mxCell id="HBiQXsytSVVe7WPZNyq9-41" value="" style="line;strokeWidth=1;fillColor=none;align=left;verticalAlign=middle;spacingTop=-1;spacingLeft=3;spacingRight=3;rotatable=0;labelPosition=right;points=[];portConstraint=eastwest;" vertex="1" parent="HBiQXsytSVVe7WPZNyq9-39">
          <mxGeometry y="60" width="160" height="8" as="geometry" />
        </mxCell>
        <mxCell id="HBiQXsytSVVe7WPZNyq9-42" value="dicegame():void&#xa;play():void" style="text;strokeColor=none;fillColor=none;align=left;verticalAlign=top;spacingLeft=4;spacingRight=4;overflow=hidden;rotatable=0;points=[[0,0.5],[1,0.5]];portConstraint=eastwest;" vertex="1" parent="HBiQXsytSVVe7WPZNyq9-39">
          <mxGeometry y="68" width="160" height="42" as="geometry" />
        </mxCell>
      </root>
    </mxGraphModel>
  </diagram>
</mxfile>
